<svg width="50" height="41" viewBox="0 0 50 41" fill="none" xmlns="http://www.w3.org/2000/svg">
<path d="M26.0701 22.8313C26.1636 21.1636 26.9803 19.6944 28.2123 18.6528C29.4205 17.6298 31.0467 17.0046 32.8211 17.0046C34.5937 17.0046 36.22 17.6298 37.4291 18.6528C38.6602 19.6944 39.4768 21.1636 39.5712 22.8295C39.6647 24.5431 38.9759 26.1349 37.7677 27.3149C36.5357 28.5151 34.7833 29.2683 32.8211 29.2683C30.8589 29.2683 29.103 28.5151 27.8719 27.3149C26.6628 26.1349 25.9758 24.5431 26.0701 22.8313Z" fill="white"/>
<path d="M15.3146 26.2068C15.3261 26.8594 15.5342 28.1276 15.8464 29.118C16.5025 31.2143 17.6155 33.1536 19.1641 34.8627C20.7533 36.6194 22.7103 38.0305 24.9706 39.0323C27.3464 40.0844 29.9207 40.6206 32.5946 40.6162C35.2641 40.6127 37.8384 40.0659 40.2143 39.0059C42.4746 37.9943 44.4298 36.5771 46.0163 34.8195C47.564 33.1033 48.6753 31.1605 49.3332 29.0642C49.6639 28.005 49.8729 26.93 49.9567 25.8514C50.0387 24.7887 50.0043 23.7243 49.8535 22.6607C49.5589 20.5882 48.8419 18.6436 47.7378 16.871C46.728 15.2421 45.4263 13.8161 43.8786 12.6158L43.8821 12.6132L28.2627 0.620181C28.2486 0.609598 28.2371 0.598151 28.2221 0.58845C27.1974 -0.198207 25.4741 -0.195557 24.3471 0.592864C23.2076 1.3901 23.0771 2.70853 24.0913 3.54016L24.0869 3.54458L30.6015 8.84216L10.7455 8.86334C10.7358 8.86334 10.7261 8.86334 10.719 8.86334C9.07778 8.8651 7.50006 9.9419 7.18786 11.3027C6.86685 12.689 7.98157 13.839 9.68805 13.8452L9.68542 13.8514L19.7497 13.832L1.79061 27.617C1.76768 27.6337 1.74298 27.6514 1.72181 27.6681C0.0276775 28.9654 -0.519972 31.1225 0.547132 32.4877C1.63011 33.8758 3.93276 33.8785 5.64453 32.4957L15.446 24.4739C15.446 24.4739 15.3031 25.5569 15.3146 26.2068ZM40.5009 29.8332C38.4813 31.8907 35.6539 33.0575 32.5946 33.0636C29.5309 33.0689 26.7035 31.9127 24.6839 29.8588C23.6971 28.8578 22.9722 27.7061 22.525 26.4793C22.0867 25.2738 21.9165 23.9941 22.0294 22.703C22.1361 21.441 22.5118 20.2372 23.1115 19.1481C23.7006 18.0774 24.512 17.11 25.5138 16.2916C27.4769 14.6918 29.9763 13.8258 32.5902 13.8223C35.2068 13.8187 37.7044 14.6768 39.6693 16.2713C40.6693 17.0862 41.4798 18.0501 42.0689 19.119C42.6713 20.2072 43.0443 21.4066 43.1554 22.6722C43.2665 23.9615 43.0963 25.2394 42.658 26.4458C42.21 27.6761 41.4877 28.8278 40.5009 29.8332Z" fill="white"/>
</svg>
