<svg width="35" height="50" viewBox="0 0 35 50" fill="none" xmlns="http://www.w3.org/2000/svg">
<path d="M27.791 0.794965C27.6913 0.814033 27.5927 0.852302 27.5026 0.912458C24.0604 3.20699 21.8648 7.02437 20.8437 9.14C19.3101 6.40562 17.5292 4.68748 13.048 4.68748C4.73469 4.68748 1.375 11.0024 1.375 13.6368C1.375 14.4071 1.96916 15.3001 4.51526 15.5533C2.60588 19.2572 0.59375 24.8833 0.59375 32.1731C0.59375 43.9481 5.26359 49.2187 9.89093 49.2187C11.1753 49.2187 17.9255 48.6333 24.7591 37.088C27.1302 33.0825 28.8542 29.3699 29.9105 26.0254C30.4831 26.3566 31.006 26.5625 31.4302 26.5625C33.6459 26.5625 34.9688 23.8543 34.9688 19.3176C34.9688 16.2028 32.6086 9.37498 25.5938 9.37498C24.2219 9.37498 23.1333 9.52049 22.3192 9.69236C23.3005 7.70408 25.3341 4.23673 28.3708 2.21251C28.7302 1.97344 28.8258 1.48851 28.586 1.12913C28.4061 0.859601 28.0902 0.737763 27.791 0.794965ZM13.048 6.24998C17.2613 6.24998 18.4637 7.7846 20.2059 11.2854C20.2231 11.3205 20.2542 11.3426 20.2761 11.3739C20.3104 11.4231 20.3406 11.4744 20.3859 11.5158C20.4234 11.5494 20.4681 11.5686 20.511 11.5936C20.5517 11.6178 20.5855 11.6512 20.6316 11.6684C20.6378 11.6707 20.6437 11.6699 20.6499 11.6714C20.6694 11.6785 20.6922 11.6774 20.7125 11.6821C20.7773 11.6993 20.8414 11.7187 20.9062 11.7187C20.9172 11.7187 20.9274 11.7142 20.9383 11.7142C20.957 11.7134 20.9745 11.7073 20.9932 11.705C21.0682 11.6964 21.1396 11.6782 21.2084 11.6485C21.2224 11.6423 21.237 11.6441 21.2511 11.6379C21.2652 11.6308 22.7305 10.9375 25.5938 10.9375C31.5547 10.9375 33.4062 17.0801 33.4062 19.3176C33.4062 22.6629 32.5935 25 31.4302 25C30.4888 25 27.1491 21.9069 24.6202 19.017C24.471 18.8467 24.2547 18.75 24.0312 18.75C23.9906 18.75 23.9498 18.7529 23.9092 18.7591C23.6436 18.8013 23.418 18.9761 23.3126 19.223C23.2915 19.273 21.1242 24.2187 17 24.2187C14.3719 24.2187 12.3125 21.4734 12.3125 17.9687C12.3125 16.5148 12.541 15.3518 13.0114 14.4119C13.1465 14.1424 13.1141 13.8193 12.929 13.5818C12.7438 13.3443 12.4416 13.2355 12.1416 13.2995C12.1072 13.3074 8.70312 14.0625 6.0625 14.0625C3.76797 14.0625 3.08743 13.6623 2.94055 13.5483C3.02336 11.81 5.49251 6.24998 13.048 6.24998ZM11.0903 15.1001C10.8621 15.9462 10.75 16.8953 10.75 17.9687C10.75 22.3492 13.4953 25.7812 17 25.7812C20.8383 25.7812 23.2052 22.6071 24.2037 20.8954C25.288 22.0852 26.9826 23.8478 28.5631 25.0915C27.5615 28.4384 25.8375 32.2 23.4148 36.293C16.8773 47.3375 10.587 47.6562 9.89093 47.6562C6.16593 47.6562 2.15625 42.8114 2.15625 32.1731C2.15625 24.7481 4.32764 19.1344 6.24561 15.6219C7.94092 15.6024 9.83715 15.3235 11.0903 15.1001ZM24.2571 24.7696C23.9528 24.7864 23.676 24.9806 23.5659 25.2853C23.4205 25.6908 23.6311 26.1387 24.0374 26.2848L25.5068 26.8127C25.5943 26.844 25.6848 26.86 25.7723 26.86C26.0926 26.86 26.3921 26.6623 26.5078 26.3428C26.6531 25.9373 26.4425 25.4894 26.0363 25.3433L24.5653 24.8138C24.4632 24.7775 24.3585 24.764 24.2571 24.7696ZM22.809 28.4103C22.5046 28.3981 22.2076 28.566 22.0705 28.8589C21.8869 29.2496 22.0552 29.7145 22.4459 29.8981L23.8588 30.5633C23.9666 30.6141 24.0797 30.6381 24.1915 30.6381C24.4852 30.6381 24.7651 30.4723 24.8979 30.1895C25.0815 29.7989 24.9147 29.334 24.5241 29.1504L23.1096 28.4851C23.0118 28.439 22.9105 28.4144 22.809 28.4103ZM21.0451 31.9427C20.7431 31.91 20.4358 32.057 20.2776 32.3395C20.0682 32.7168 20.2031 33.1928 20.5797 33.403L21.9454 34.1629C22.0649 34.2293 22.1949 34.2605 22.3238 34.2605C22.5988 34.2605 22.8644 34.117 23.0074 33.8608C23.2168 33.4834 23.0818 33.0074 22.7053 32.7972L21.3396 32.0373C21.246 31.9848 21.1458 31.9537 21.0451 31.9427ZM18.7609 35.3409C18.5648 35.3796 18.3834 35.4938 18.2634 35.6735C18.0228 36.0321 18.12 36.517 18.4786 36.7569L19.7771 37.6251C19.9107 37.7142 20.0612 37.7563 20.2104 37.7563C20.4628 37.7563 20.7105 37.635 20.8605 37.41C21.1011 37.0514 21.0039 36.5664 20.6453 36.3266L19.3468 35.4584C19.1675 35.3384 18.957 35.3021 18.7609 35.3409ZM16.4873 38.4399C16.2877 38.4526 16.0916 38.5403 15.9487 38.7024C15.6643 39.0258 15.6962 39.5204 16.0204 39.8056L17.1923 40.8371C17.3399 40.9683 17.5244 41.0324 17.708 41.0324C17.9252 41.0324 18.1408 40.9435 18.2955 40.7669C18.5798 40.4435 18.548 39.9504 18.2238 39.6652L17.0519 38.6322C16.8909 38.4896 16.6869 38.4272 16.4873 38.4399ZM13.843 41.1026C13.6449 41.0753 13.4365 41.1232 13.2646 41.2536C12.9217 41.5146 12.8526 42.0039 13.1136 42.3477L14.0581 43.5943C14.212 43.7975 14.4455 43.9026 14.6822 43.9026C14.8463 43.9026 15.0131 43.8509 15.1537 43.7439C15.4967 43.4829 15.5642 42.9936 15.3032 42.6498L14.3587 41.4032C14.2282 41.2317 14.041 41.1298 13.843 41.1026ZM10.5699 42.8512C10.4695 42.8379 10.3664 42.8445 10.2632 42.8726C9.84762 42.9874 9.60366 43.4168 9.71851 43.8324L10.1351 45.3384C10.2312 45.6845 10.5451 45.9122 10.8873 45.9122C10.9569 45.9122 11.0261 45.9027 11.0948 45.8832C11.5105 45.7683 11.7544 45.339 11.6396 44.9234L11.223 43.4158C11.1369 43.1041 10.8713 42.8912 10.5699 42.8512Z" fill="white"/>
</svg>
