<svg width="50" height="50" viewBox="0 0 50 50" fill="none" xmlns="http://www.w3.org/2000/svg">
<path d="M49.057 22.7731L27.2322 0.942707C26.6281 0.339073 25.8089 0 24.9549 0C24.1008 0 23.2817 0.339073 22.6775 0.942707L18.1396 5.47731L23.8896 11.2273C26.9097 10.2072 29.7691 13.099 28.7322 16.1023L34.2746 21.6447C38.095 20.3278 41.1028 25.1045 38.2333 27.9717C35.2769 30.9282 30.3974 27.6514 31.9833 23.8043L26.8104 18.638V32.2374C29.634 33.6369 29.2947 36.9081 27.8237 38.3757C27.1051 39.094 26.1306 39.4975 25.1145 39.4975C24.0984 39.4975 23.1239 39.094 22.4052 38.3757C20.4443 36.4115 21.1697 33.1403 23.6608 32.1257V18.3981C21.3394 17.4483 20.9153 14.9673 21.5804 13.3757L15.9119 7.70052L0.943169 22.6715C0.339262 23.2755 0 24.0947 0 24.9488C0 25.803 0.339262 26.6222 0.943169 27.2262L22.7746 49.0565C23.3786 49.6601 24.1976 49.9992 25.0514 49.9992C25.9053 49.9992 26.7242 49.6601 27.3282 49.0565L49.057 27.3277C49.6609 26.7237 50.0002 25.9045 50.0002 25.0504C50.0002 24.1963 49.6609 23.3771 49.057 22.7731Z" fill="white"/>
</svg>
