<svg width="45" height="40" viewBox="0 0 45 40" fill="none" xmlns="http://www.w3.org/2000/svg">
<path d="M3.09082 5.43763H4.93567V2.22708H3.09082V1.14767H41.7004V2.26362H39.7077V5.43741H41.7004V35.052H39.6619L39.6802 38.2625H41.7004V39.3359H3.09082V38.3179H4.91751L4.90866 34.8954L3.09082 34.8859V5.43763ZM11.1358 2.22708H7.9992V5.32692H11.1358V2.22708ZM17.3538 2.22708H14.2175V5.32692H17.3543L17.3538 2.22708ZM23.7935 2.22708H20.6567V5.32692H23.7935V2.22708ZM30.1593 2.22708H27.0227V5.32692H30.1593V2.22708ZM36.3957 2.22708H33.2594V5.32692H36.396L36.3957 2.22708ZM11.3342 35.2182H8.19714V38.3181H11.334L11.3342 35.2182ZM17.5522 35.2182H14.4154V38.3181H17.552L17.5522 35.2182ZM23.9919 35.2182H20.8553V38.3181H23.9922L23.9919 35.2182ZM30.3577 35.2182H27.2211V38.3181H30.3577V35.2182ZM36.5941 35.2182H33.4575V38.3181H36.5941V35.2182Z" fill="white" stroke="#333333" stroke-width="0.141707" stroke-linejoin="round"/>
<path d="M2.90625 5.28996H4.75132V2.07941H2.90647V1H41.5159V2.11594H39.5231V5.28973H41.5159V34.9043H39.4773L39.4957 38.1148H41.5159V39.1883H2.90625V38.1702H4.73294L4.72408 34.7477L2.90846 34.7382L2.90625 5.28996ZM10.9512 2.07941H7.81463V5.17925H10.9514L10.9512 2.07941ZM17.1693 2.07941H14.0327V5.17925H17.1693V2.07941ZM23.609 2.07941H20.4724V5.17925H23.6092L23.609 2.07941ZM29.9747 2.07941H26.8359V5.17925H29.9727L29.9747 2.07941ZM36.2112 2.07941H33.0746V5.17925H36.2112V2.07941ZM11.1496 35.0706H8.01279V38.1704H11.1496V35.0706ZM17.3677 35.0706H14.2306V38.1704H17.3674L17.3677 35.0706ZM23.8074 35.0706H20.6708V38.1704H23.8076L23.8074 35.0706ZM30.1731 35.0706H27.0365V38.1704H30.1733V35.0706H30.1731ZM36.4095 35.0706H33.2725V38.1704H36.4091L36.4095 35.0706Z" fill="white" stroke="#333333" stroke-width="0.141707" stroke-linejoin="round"/>
<path d="M4.73291 6.56311H39.8275V33.6314H4.73291V6.56311Z" fill="#333333" stroke="#333333" stroke-width="0.141707" stroke-linejoin="round"/>
<path d="M1.00422 10.8035C1.00422 10.8035 2.02274 7.39365 4.06864 7.72578C10.3237 7.72578 5.38961 31.0853 11.6446 31.0853C17.8997 31.0853 12.8753 7.83649 18.7772 7.83649C24.679 7.83649 21.0622 30.8085 26.3208 30.8085C31.5795 30.8085 27.6671 7.83649 33.849 7.83649C40.031 7.83649 36.0816 31.122 41.2665 31.122C42.6136 31.0483 43.3655 28.6541 43.3655 28.6541C43.3655 28.6541 43.5086 28.2806 43.8223 28.4467C43.995 28.5082 44.0827 28.7004 44.0158 28.8711C44.0158 28.8711 42.8718 31.897 41.2112 31.8235C35.3068 31.8235 38.7388 8.53772 33.849 8.53772C28.9593 8.53772 32.5223 31.8231 26.2757 31.8231C20.0291 31.8231 23.8286 8.5003 18.7736 8.5003C13.7187 8.5003 18.8485 31.8231 11.5784 31.8231C4.30843 31.8231 9.58525 8.46354 4.06864 8.46354C2.27892 8.46354 1.6977 10.9915 1.6977 10.9915C1.6977 10.9915 1.62153 11.2076 1.29029 11.0672C0.959054 10.9268 1.004 10.8037 1.004 10.8037L1.00422 10.8035Z" fill="white"/>
<path opacity="0.37" d="M1.00403 10.8035C1.00403 10.8035 2.02255 7.39365 4.06844 7.72578C10.3235 7.72578 5.38942 31.0853 11.6445 31.0853C17.8995 31.0853 12.8751 7.83649 18.777 7.83649C24.6788 7.83649 21.062 30.8085 26.3207 30.8085C31.5793 30.8085 27.6669 7.83649 33.8488 7.83649C40.0308 7.83649 36.0814 31.122 41.2663 31.122C42.6132 31.0483 43.3654 28.6541 43.3654 28.6541C43.3654 28.6541 43.5084 28.2806 43.8221 28.4467C43.9049 28.4761 43.9723 28.5379 44.0088 28.6178C44.0453 28.6978 44.0478 28.7892 44.0154 28.8709C44.0154 28.8709 42.8714 31.8968 41.2107 31.8233C35.3062 31.8233 38.7382 8.5375 33.8486 8.5375C28.9591 8.5375 32.5221 31.8231 26.2755 31.8231C20.0289 31.8231 23.8284 8.5003 18.7734 8.5003C13.7185 8.5003 18.8483 31.8231 11.5782 31.8231C4.30824 31.8231 9.58505 8.46354 4.06844 8.46354C2.27873 8.46354 1.69751 10.9912 1.69751 10.9912C1.69751 10.9912 1.62134 11.2073 1.2901 11.067C0.958858 10.9266 1.00403 10.8035 1.00403 10.8035Z" fill="white"/>
<path d="M1.07949 13.4824H18.0179L36.8937 19.1839H44.0344C44.0344 19.1839 44.8094 19.1285 44.8094 20.2356C44.8094 21.3427 44.0714 21.2873 44.0714 21.2873H36.8384L18.2393 15.5582L1.07949 15.5859C0.84927 15.5131 0.647821 15.3696 0.503743 15.1759C0.359666 14.9821 0.280281 14.7479 0.276857 14.5064C0.275972 14.0209 0.607655 13.5975 1.07949 13.4824Z" fill="white"/>
<path opacity="0.5" d="M1.07949 13.4824H18.0179L36.8937 19.1839H44.0344C44.0344 19.1839 44.8094 19.1285 44.8094 20.2356C44.8094 21.3427 44.0712 21.2873 44.0712 21.2873H36.8384L18.2393 15.5582L1.07949 15.5859C0.84927 15.5131 0.647821 15.3696 0.503743 15.1759C0.359666 14.9821 0.280281 14.7479 0.276857 14.5064C0.275972 14.0209 0.607655 13.5975 1.07949 13.4824Z" fill="white"/>
<path d="M0.802639 24.2211H17.7411C17.7411 24.2211 21.1177 27.7638 21.1177 25.4389C21.1177 23.114 17.9625 26.2969 17.9625 26.2969L0.802639 26.3246C0.572414 26.2518 0.370965 26.1084 0.226888 25.9146C0.0828103 25.7208 0.00342526 25.4866 1.76943e-06 25.2452C-0.000883899 24.7596 0.330799 24.3363 0.802639 24.2211Z" fill="white"/>
<path opacity="0.5" d="M0.802639 24.2211H17.7411C17.7411 24.2211 21.1177 27.7638 21.1177 25.4389C21.1177 23.114 17.9625 26.2969 17.9625 26.2969L0.802639 26.3246C0.572414 26.2518 0.370965 26.1084 0.226888 25.9146C0.0828103 25.7208 0.00342526 25.4866 1.76943e-06 25.2452C-0.000883899 24.7596 0.330799 24.3363 0.802639 24.2211Z" fill="white"/>
<path d="M38.6097 20.2356H12.4824V7.06131L38.6097 20.2356Z" fill="white"/>
<path d="M38.6097 20.2356H12.4824V33.1885L38.6097 20.2356Z" fill="white"/>
<path d="M35.3989 20.1803L13.9214 31.0297V9.33081L35.3989 20.1803Z" fill="white"/>
<path d="M24.7118 18.7856L24.6918 21.0385L22.2359 21.0584V23.5753H19.8811V21.1804H17.1001V18.7856H19.7996L19.8074 16.195L22.3165 16.1773L22.2961 18.7679L24.7118 18.7856Z" fill="white"/>
<path d="M24.7118 18.7856L24.6918 21.0385L22.2359 21.0584V23.5753H19.8811V21.1804H17.1001V18.7856H19.7996L19.8074 16.195L22.3165 16.1773L22.2961 18.7679L24.7118 18.7856Z" stroke="white" stroke-width="0.283414"/>
<path d="M24.1068 19.2209L24.0884 21.269L21.8559 21.2874V23.5755H19.7154V21.3983H17.1875V19.2211H19.6417L19.6601 16.7485H21.9296L21.911 19.2027L24.1068 19.2209Z" fill="white" stroke="#333333" stroke-width="0.283414"/>
<path d="M21.1175 19.8297H23.5531V21.2873H21.1175V23.5385H19.5676L19.5492 21.398H17.2427V19.8297H19.5492V17.4125H21.1175V19.8297Z" fill="#333333"/>
</svg>
