<svg width="50" height="57" viewBox="0 0 50 57" fill="none" xmlns="http://www.w3.org/2000/svg">
<path d="M24.9219 56.2444C24.1741 56.2444 23.4152 56.0435 22.7567 55.6641L15.8705 51.5904C14.8438 51.01 15.346 50.8092 15.6808 50.6975C17.0536 50.2176 17.3326 50.1172 18.7946 49.2801C18.9509 49.1908 19.1518 49.2243 19.308 49.3248L24.5982 52.4609C24.7879 52.5725 25.0558 52.5725 25.2344 52.4609L45.8482 40.5636C46.0379 40.452 46.1607 40.2288 46.1607 40.0056V16.2109C46.1607 15.9766 46.0379 15.7645 45.8371 15.6417L25.2344 3.75558C25.0446 3.64397 24.7879 3.64397 24.5982 3.75558L4.0067 15.6529C3.8058 15.7645 3.68304 15.9877 3.68304 16.2221V40.0056C3.68304 40.2288 3.8058 40.452 4.0067 40.5525L9.65402 43.8114C12.7232 45.3404 14.5982 43.5435 14.5982 41.7243V18.2422C14.5982 17.9074 14.8661 17.6507 15.2009 17.6507H17.8125C18.1362 17.6507 18.4152 17.9074 18.4152 18.2422V41.7355C18.4152 45.8203 16.183 48.1641 12.3103 48.1641C11.1161 48.1641 10.1786 48.1641 7.56696 46.8694L2.16518 43.7556C0.825893 42.9855 0 41.5458 0 39.9944V16.2109C0 14.6708 0.825893 13.2199 2.16518 12.4498L22.7567 0.552455C24.0625 -0.184152 25.7924 -0.184152 27.0871 0.552455L47.7009 12.4609C49.0402 13.231 49.8661 14.6708 49.8661 16.2221V40.0056C49.8661 41.5458 49.0402 42.9855 47.7009 43.7667L27.0871 55.6641C26.4286 56.0435 25.6808 56.2444 24.9219 56.2444ZM41.5625 32.7958C41.5625 28.3426 38.5491 27.1596 32.221 26.3225C25.8147 25.4743 25.1674 25.0391 25.1674 23.5435C25.1674 22.3047 25.7143 20.6529 30.4576 20.6529C34.6875 20.6529 36.25 21.5681 36.8973 24.4252C36.9531 24.6931 37.1987 24.894 37.4777 24.894H40.1562C40.3237 24.894 40.4799 24.827 40.5915 24.7042C40.7031 24.5815 40.7589 24.4141 40.7478 24.2467C40.3348 19.3248 37.0647 17.0368 30.4576 17.0368C24.5759 17.0368 21.0714 19.5145 21.0714 23.6775C21.0714 28.1864 24.5647 29.4364 30.2009 29.9944C36.9531 30.6529 37.4777 31.6462 37.4777 32.9743C37.4777 35.2734 35.625 36.2556 31.2835 36.2556C25.8259 36.2556 24.6317 34.8828 24.2299 32.1708C24.1853 31.8806 23.9397 31.6685 23.6384 31.6685H20.971C20.6362 31.6685 20.3795 31.9364 20.3795 32.26C20.3795 35.731 22.2656 39.8717 31.2946 39.8717C37.8125 39.8605 41.5625 37.2824 41.5625 32.7958Z" fill="white"/>
</svg>
