<svg width="34" height="50" viewBox="0 0 34 50" fill="none" xmlns="http://www.w3.org/2000/svg">
<path d="M25.0098 16.6699C27.2203 16.6699 29.3404 15.7918 30.9035 14.2287C32.4666 12.6656 33.3447 10.5455 33.3447 8.33496C33.3447 6.12439 32.4666 4.00436 30.9035 2.44125C29.3404 0.878145 27.2203 0 25.0098 0L8.33984 0C6.13057 0 4.01178 0.877631 2.44959 2.43982C0.887398 4.00202 0.00976789 6.1208 0.00976789 8.33008C0.00976789 10.5394 0.887398 12.6581 2.44959 14.2203C4.01178 15.7825 6.13057 16.6602 8.33984 16.6602C6.12927 16.6602 4.00925 17.5383 2.44614 19.1014C0.88303 20.6645 0.00488515 22.7845 0.00488515 24.9951C0.00488515 27.2057 0.88303 29.3257 2.44614 30.8888C4.00925 32.4519 6.12927 33.3301 8.33984 33.3301C6.69134 33.3291 5.07958 33.817 3.70837 34.7321C2.33715 35.6471 1.26808 36.9482 0.636334 38.4709C0.00458914 39.9935 -0.161452 41.6693 0.159207 43.2863C0.479866 44.9033 1.27282 46.3889 2.4378 47.5553C3.60279 48.7216 5.08747 49.5163 6.7041 49.8389C8.32074 50.1614 9.99672 49.9974 11.5201 49.3674C13.0435 48.7374 14.3459 47.6699 15.2625 46.2998C16.1792 44.9296 16.669 43.3184 16.6699 41.6699V16.6699H25.0098ZM25.0098 16.6699C23.3622 16.6699 21.7517 17.1585 20.3818 18.0738C19.0119 18.9891 17.9443 20.2901 17.3138 21.8122C16.6833 23.3343 16.5183 25.0092 16.8397 26.6251C17.1612 28.241 17.9545 29.7253 19.1195 30.8903C20.2845 32.0552 21.7688 32.8486 23.3846 33.17C25.0005 33.4914 26.6754 33.3265 28.1975 32.696C29.7197 32.0655 31.0206 30.9978 31.936 29.6279C32.8513 28.2581 33.3398 26.6475 33.3398 25C33.3396 22.7908 32.4619 20.6722 30.8997 19.11C29.3376 17.5479 27.219 16.6702 25.0098 16.6699Z" fill="white"/>
</svg>
